<?xml version="1.0" encoding="utf-8"?>
<!-- Generator: Adobe Illustrator 24.0.2, SVG Export Plug-In . SVG Version: 6.00 Build 0)  -->
<svg version="1.1" id="b" xmlns="http://www.w3.org/2000/svg" xmlns:xlink="http://www.w3.org/1999/xlink" x="0px" y="0px"
	 viewBox="90 220 400 420" width="200" height="200" xml:space="preserve">
	<style type="text/css">
		line.st0{fill:none;stroke:#ffffff;stroke-width:10px;}
	</style>
	<g id="Group_115" transform="translate(-1660.317 -43)">
		<g>
			<g id="Group_84_6_" transform="translate(824.317 -747)">
				<g id="Group_83_6_" transform="translate(837.5 791.5)">
					<g id="Line_13_7_">
						<line x1="219.59" y1="330.39" x2="354.85" y2="330.39"/>
						<line class="st0" x1="219.59" y1="330.39" x2="354.85" y2="330.39"/>
					</g>
					<g id="Path_8_7_">
						<line x1="142.94" y1="535.11" x2="431.5" y2="535.11"/>
						<line class="st0" x1="142.94" y1="535.11" x2="431.5" y2="535.11"/>
					</g>
					<g id="Line_15_7_">
						<line x1="219.59" y1="330.39" x2="142.94" y2="476"/>
						<line class="st0" x1="219.59" y1="330.39" x2="142.94" y2="476"/>
					</g>
					<g id="Line_16_7_">
						<line x1="354.85" y1="330.39" x2="431.5" y2="476"/>
						<line class="st0" x1="354.85" y1="330.39" x2="431.5" y2="476"/>
					</g>
					<g id="Line_17_7_">
						<line x1="142.94" y1="476" x2="142.94" y2="535.11"/>
						<line class="st0" x1="142.94" y1="476" x2="142.94" y2="535.11"/>
					</g>
					<g id="Line_18_7_">
						<line x1="431.5" y1="476" x2="431.5" y2="535.11"/>
						<line class="st0" x1="431.5" y1="476" x2="431.5" y2="535.11"/>
					</g>
					<g id="Line_19_7_">
						<line x1="142.94" y1="476" x2="204.56" y2="476"/>
						<line class="st0" x1="142.94" y1="476" x2="204.56" y2="476"/>
					</g>
					<g id="Line_20_7_">
						<line x1="369.88" y1="476" x2="431.5" y2="476"/>
						<line class="st0" x1="369.88" y1="476" x2="431.5" y2="476"/>
					</g>
					<g id="Line_21_7_">
						<line x1="257.16" y1="506.27" x2="318.78" y2="506.27"/>
						<line class="st0" x1="257.16" y1="506.27" x2="318.78" y2="506.27"/>
					</g>
					<g id="Line_22_7_">
						<line x1="204.56" y1="476" x2="257.16" y2="506.27"/>
						<line class="st0" x1="204.56" y1="476" x2="257.16" y2="506.27"/>
					</g>
					<g id="Line_23_7_">
						<line x1="318.78" y1="506.27" x2="369.88" y2="476"/>
						<line class="st0" x1="318.78" y1="506.27" x2="369.88" y2="476"/>
					</g>
				</g>
			</g>
		</g>
	</g>
</svg>
